<?xml version="1.0" encoding="UTF-8"?><svg id="a" xmlns="http://www.w3.org/2000/svg" xmlns:xlink="http://www.w3.org/1999/xlink" viewBox="0 0 500 500"><defs><style>.h{fill:url(#e);}.i{fill:url(#d);}.j{fill:url(#g);}.k{fill:url(#f);}.l{fill:url(#c);}.m{fill:url(#b);}</style><linearGradient id="b" x1="187.34" y1="159.73" x2="290.33" y2="159.73" gradientTransform="matrix(1, 0, 0, 1, 0, 0)" gradientUnits="userSpaceOnUse"><stop offset="0" stop-color="#ddc18e"/><stop offset="1" stop-color="#b1915d"/></linearGradient><linearGradient id="c" x1="313.58" y1="179.48" x2="416.57" y2="179.48" xlink:href="#b"/><linearGradient id="d" x1="61.11" y1="192.13" x2="164.1" y2="192.13" xlink:href="#b"/><linearGradient id="e" x1="126.91" y1="454.3" x2="442" y2="454.3" xlink:href="#b"/><linearGradient id="f" x1="40.99" y1="381.58" x2="494.19" y2="381.58" xlink:href="#b"/><linearGradient id="g" x1="0" y1="294.95" x2="500" y2="294.95" xlink:href="#b"/></defs><g><path class="m" d="M244.42,0h-57.08V319.45c29.58-.92,58.69-5.24,86.87-12.67h-29.79v-12.27h45.91v-12.27h-45.91v-12.27h45.91v-12.27h-45.91v-12.27h45.91v-12.27h-45.91v-12.27h45.91v-12.27h-45.91v-12.27h45.91v-12.27h-45.91v-12.27h45.91v-12.27h-45.91v-12.27h45.91v-12.27h-45.91v-12.27h45.91v-12.27h-45.91v-12.27h45.91v-12.27h-45.91v-12.27h45.91v-12.27h-45.91v-12.27h45.91v-12.27h-45.91v-12.27h45.91V12.27h-45.91V0Z"/><path class="l" d="M416.57,177.51v-8.11h-51.5v-8.11h44.8l-8.1-8.11h-36.7v-8.11h28.61l-8.09-8.11h-20.52v-8.11h12.43l-63.91-64.05v229.36c19.67-7.54,38.7-16.74,56.92-27.46h-5.43v-8.11h18.58c4.07-2.63,8.09-5.33,12.07-8.11h-30.65v-8.11h41.83c3.25-2.46,6.49-4.94,9.67-7.51v-.6h-51.5v-8.11h51.5v-8.11h-51.5v-8.11h51.5v-8.11h-51.5v-8.11h51.5v-8.11h-51.5v-8.11h51.5Z"/><path class="i" d="M112.61,127.12v10.46h-21.14l-10.44,10.46h31.58v10.46h-42.02l-9.49,9.5v.95h51.5v10.47H61.11v10.46h51.5v10.46H61.11v10.46h51.5v10.46H61.11v10.46h51.5v10.46H61.11v10.46h51.5v10.46H61.11v10.46h51.5v10.46H61.11v10.46h51.5v10.46h-43.97c19.1,5.33,38.54,9.33,58.1,11.73,12.48,1.53,24.95,2.44,37.36,2.79V64.8l-62.2,62.32h10.71Z"/></g><g><path class="h" d="M441.45,408.8c-17.53,16.23-68.87,53.72-156.85,67.67-76.46,12.12-127.47,2.69-157.17-8.24-.56-.18-.69,.25-.25,.51,47.29,26,103.27,37.25,160.64,28.15,62.78-9.96,116.33-42.39,153.96-87.66,.46-.55,.15-.82-.33-.43Z"/><path class="k" d="M493.61,302.52c-28.67,61.04-131.47,112.58-243.21,130.3-78.99,12.53-167.97,.69-208.88-42.36-.4-.39-.7-.15-.42,.33,41.42,61.1,141.16,82.25,257.33,63.83,61.15-9.7,125.71-37.06,160.68-76.5,9.58-10.75,18.16-24.4,24.99-42.01,3.94-10.13,7.48-21.98,10.07-33.49,.11-.56-.26-.76-.56-.11Z"/><path class="j" d="M494.54,195.13c-.1-.66-.5-.66-.53,.01-1.37,50.1-145.94,139.34-279.69,160.55C87.14,375.86,17.8,326.02,.52,287.24c-.23-.57-.59-.38-.51,.15,2.15,13.64,6.3,31.02,10.48,42.33,2.02,5.51,8.04,13.7,15.94,19.74,35.88,27.28,119.78,60.18,252.75,39.09,181.17-28.73,213.04-95.77,218.36-117,3.8-15.18,2.88-41.38-.53-62.97-.83-5.22-1.61-9.38-2.46-13.44Z"/></g></svg>